<svg xmlns="http://www.w3.org/2000/svg" version="1.1" xmlns:xlink="http://www.w3.org/1999/xlink" xmlns:svgjs="http://svgjs.dev/svgjs" width="300" height="300" viewBox="0 0 1000 1012"><g transform="matrix(1,0,0,1,0.883934426229473,0.40971659919023296)"><svg viewBox="0 0 244 247" data-background-color="#000000" preserveAspectRatio="xMidYMid meet" height="1012" width="1000" xmlns="http://www.w3.org/2000/svg" xmlns:xlink="http://www.w3.org/1999/xlink"><g id="tight-bounds" transform="matrix(1,0,0,1,-0.21567999999999188,-0.09999999999999432)"><svg viewBox="0 0 244.43135999999998 247.2" height="247.2" width="244.43135999999998"><g><svg></svg></g><g><svg viewBox="0 0 244.43135999999998 247.2" height="247.2" width="244.43135999999998"><g transform="matrix(1,0,0,1,0,74.47408941176471)"><svg viewBox="0 0 244.43135999999998 98.25182117647059" height="98.25182117647059" width="244.43135999999998"><g><svg viewBox="0 0 244.43135999999998 98.25182117647059" height="98.25182117647059" width="244.43135999999998"><g><svg viewBox="0 0 244.43135999999998 98.25182117647059" height="98.25182117647059" width="244.43135999999998"><g><svg viewBox="0 0 244.43135999999998 98.25182117647059" height="98.25182117647059" width="244.43135999999998"><g id="textblocktransform"><svg viewBox="0 0 244.43135999999998 98.25182117647059" height="98.25182117647059" width="244.43135999999998" id="textblock"><g><svg viewBox="0 0 244.43135999999998 98.25182117647059" height="98.25182117647059" width="244.43135999999998"><g transform="matrix(1,0,0,1,0,0)"><svg width="244.43135999999998" viewBox="1 -35.099998474121094 117.29000091552734 47.14999771118164" height="98.25182117647059" data-palette-color="#89939e"><path d="M23.35 0L7.9 0 7.9-1.05 9.9-1.45Q12-1.9 12-3.9L12-3.9 12-17.55Q12-21.05 12-24.55 12-28.05 11.95-31.55L11.95-31.55 8-31.55Q6.4-31.55 5.65-30.7 4.9-29.85 4.15-28.3L4.15-28.3 2.4-24.6 1-24.6 1.25-33.05 29.95-33.05 30.2-24.6 28.8-24.6 27.05-28.3Q26.3-29.85 25.55-30.7 24.8-31.55 23.2-31.55L23.2-31.55 19.2-31.55 19.2-3.9Q19.2-1.85 21.3-1.45L21.3-1.45 23.35-1.05 23.35 0ZM36.65 12.05L36.65 12.05Q34.65 12.05 33.5 11.1 32.35 10.15 32.35 8.6L32.35 8.6Q32.35 7.2 33.32 6.38 34.3 5.55 35.5 5.55L35.5 5.55Q36.75 5.55 37.55 6 38.35 6.45 38.95 7.3L38.95 7.3 39.25 7.7Q40.4 9.1 41.4 7.65L41.4 7.65Q42.05 6.8 42.67 5.55 43.3 4.3 44.05 2.25L44.05 2.25 34.55-20.45Q34.2-21.4 33.75-21.93 33.3-22.45 32.4-22.8L32.4-22.8 31.55-23.1 31.55-24 43.9-24 43.9-23.1 42.85-22.8Q41.75-22.45 41.67-21.73 41.6-21 42-19.85L42-19.85 47.1-6.55 52-19.95Q52.4-21.05 52.3-21.8 52.2-22.55 51.05-22.8L51.05-22.8 49.95-23.1 49.95-24 57.4-24 57.4-23.1 56.3-22.75Q55.2-22.45 54.72-21.88 54.25-21.3 53.85-20.2L53.85-20.2 45.85 1.3Q43.85 6.8 41.77 9.43 39.7 12.05 36.65 12.05ZM70.8 0L59.15 0 59.15-0.95 59.9-1.15Q61.55-1.7 61.55-3.65L61.55-3.65Q61.55-5.35 61.57-7.08 61.6-8.8 61.6-10.5L61.6-10.5 61.6-29.5Q61.6-30.55 61.25-31.08 60.9-31.6 59.9-31.85L59.9-31.85 59.15-32.05 59.15-33 67.9-35.1 68.55-34.65 68.34-27.6 68.34-3.65Q68.4-2.65 68.77-2.02 69.15-1.4 70.09-1.15L70.09-1.15 70.8-0.95 70.8 0ZM85.54-24.75L85.54-24.75Q88.69-24.75 90.94-23.45 93.19-22.15 94.42-19.88 95.64-17.6 95.64-14.65L95.64-14.65Q95.64-14 95.59-13.43 95.54-12.85 95.39-12.35L95.39-12.35 80.34-12.35Q80.39-7.2 82.27-4.95 84.14-2.7 87.74-2.7L87.74-2.7Q90.24-2.7 91.79-3.53 93.34-4.35 94.64-5.85L94.64-5.85 95.44-5.1Q93.94-2.35 91.37-0.83 88.79 0.7 85.24 0.7L85.24 0.7Q81.69 0.7 78.99-0.8 76.29-2.3 74.77-5.13 73.24-7.95 73.24-11.9L73.24-11.9Q73.24-16 75.02-18.85 76.79-21.7 79.62-23.23 82.44-24.75 85.54-24.75ZM85.29-23.3L85.29-23.3Q83.84-23.3 82.77-22.48 81.69-21.65 81.07-19.58 80.44-17.5 80.34-13.75L80.34-13.75 89.29-13.75Q89.84-18.8 88.89-21.05 87.94-23.3 85.29-23.3ZM110.69 0L98.19 0 98.19-0.95 98.94-1.2Q99.94-1.45 100.32-2.05 100.69-2.65 100.69-3.65L100.69-3.65 100.69-18.3Q100.64-19.4 100.29-19.98 99.94-20.55 98.94-20.75L98.94-20.75 98.19-20.95 98.19-21.85 106.34-24.75 106.94-24.2 107.39-19.8 107.39-19.45Q108.14-20.85 109.29-22.05 110.44-23.25 111.79-24 113.14-24.75 114.49-24.75L114.49-24.75Q116.39-24.75 117.34-23.75 118.29-22.75 118.29-21.2L118.29-21.2Q118.29-19.5 117.34-18.63 116.39-17.75 115.04-17.75L115.04-17.75Q113.04-17.75 111.59-19.55L111.59-19.55 111.49-19.65Q110.99-20.25 110.37-20.33 109.74-20.4 109.14-19.7L109.14-19.7Q108.64-19.2 108.22-18.53 107.79-17.85 107.44-16.95L107.44-16.95 107.44-3.85Q107.44-2.9 107.84-2.27 108.24-1.65 109.19-1.4L109.19-1.4 110.69-0.95 110.69 0Z" opacity="1" transform="matrix(1,0,0,1,0,0)" fill="#89939e" class="undefined-text-0" data-fill-palette-color="primary" id="text-0"></path></svg></g></svg></g></svg></g></svg></g><g></g></svg></g></svg></g></svg></g><path d="M0 68.474L0 1 244.431 1 244.431 68.474 235.571 68.474 235.571 9.86 8.86 9.86 8.86 68.474 0 68.474M0 178.726L0 246.2 244.431 246.2 244.431 178.726 235.571 178.726 235.571 237.34 8.86 237.34 8.86 178.726 0 178.726" fill="#89939e" stroke="transparent" data-fill-palette-color="primary"></path></svg></g><defs></defs></svg><rect width="244.43135999999998" height="247.2" fill="none" stroke="none" visibility="hidden"></rect></g></svg></g></svg>