<svg xmlns="http://www.w3.org/2000/svg" version="1.1" xmlns:xlink="http://www.w3.org/1999/xlink" xmlns:svgjs="http://svgjs.dev/svgjs" width="128" height="128" viewBox="0 0 128 128"><g transform="matrix(0.8046875,0,0,0.8046875,12.333870967741937,12.333870967741937)"><svg viewBox="0 0 155 155" data-background-color="#000000" preserveAspectRatio="xMidYMid meet" height="128" width="128" xmlns="http://www.w3.org/2000/svg" xmlns:xlink="http://www.w3.org/1999/xlink"><g id="tight-bounds" transform="matrix(1,0,0,1,0.25,0.25)"><svg viewBox="0 0 154.5 154.5" height="154.5" width="154.5"><g><svg></svg></g><g><svg viewBox="0 0 154.5 154.5" height="154.5" width="154.5"><g transform="matrix(1,0,0,1,51.18325365204237,47.746371)"><svg viewBox="0 0 52.13349269591527 59.00725799999999" height="59.00725799999999" width="52.13349269591527"><g><svg viewBox="0 0 52.13349269591527 59.00725799999999" height="59.00725799999999" width="52.13349269591527"><g><svg viewBox="0 0 52.13349269591527 59.00725799999999" height="59.00725799999999" width="52.13349269591527"><g id="textblocktransform"><svg viewBox="0 0 52.13349269591527 59.00725799999999" height="59.00725799999999" width="52.13349269591527" id="textblock"><g><svg viewBox="0 0 52.13349269591527 59.00725799999999" height="59.00725799999999" width="52.13349269591527"><g transform="matrix(1,0,0,1,0,0)"><svg width="52.13349269591527" viewBox="1 -33.05 29.2 33.05" height="59.00725799999999" data-palette-color="#89939e"><path d="M23.35 0L7.9 0 7.9-1.05 9.9-1.45Q12-1.9 12-3.9L12-3.9 12-17.55Q12-21.05 12-24.55 12-28.05 11.95-31.55L11.95-31.55 8-31.55Q6.4-31.55 5.65-30.7 4.9-29.85 4.15-28.3L4.15-28.3 2.4-24.6 1-24.6 1.25-33.05 29.95-33.05 30.2-24.6 28.8-24.6 27.05-28.3Q26.3-29.85 25.55-30.7 24.8-31.55 23.2-31.55L23.2-31.55 19.2-31.55 19.2-3.9Q19.2-1.85 21.3-1.45L21.3-1.45 23.35-1.05 23.35 0Z" opacity="1" transform="matrix(1,0,0,1,0,0)" fill="#89939e" class="undefined-text-0" data-fill-palette-color="primary" id="text-0"></path></svg></g></svg></g></svg></g></svg></g></svg></g></svg></g><path d="M51.183 41.746L51.183 1 103.317 1 103.317 41.746 97.995 41.746 97.995 6.321 56.505 6.321 56.505 41.746 51.183 41.746M51.183 112.754L51.183 153.5 103.317 153.5 103.317 112.754 97.995 112.754 97.995 148.179 56.505 148.179 56.505 112.754 51.183 112.754" fill="#89939e" stroke="transparent" data-fill-palette-color="primary"></path></svg></g><defs></defs></svg><rect width="154.5" height="154.5" fill="none" stroke="none" visibility="hidden"></rect></g></svg></g></svg>